<svg xmlns="http://www.w3.org/2000/svg" xmlns:xlink="http://www.w3.org/1999/xlink" id="Capa_1" x="0px" y="0px" viewBox="0 0 721 540" style="enable-background:new 0 0 721 540;" xml:space="preserve"><style type="text/css">	.st0{fill:#70706E;}	.st1{fill:#848481;}	.st2{fill:#227BE7;}</style><g>	<path class="st0" d="M567.2,242.5c9.6-31.4-3.5-77-12-92.1c-31.4,11.4-70.6,19.1-111.2,7.6c-13.6-69.6-140.7,26.1-205.7-35.6  c1.1,14.7,10.9,26.6,24.7,31c-56.8,11.3-102.8,17.1-152.5,20.7c25.8,23,81.9,26.8,119.1,30.5c-22.9,17.1-62.5,24.2-87.2,27.4  c8.6,17.4,25.8,17.5,41.1,23.2c-24.6,28-39.3,59.6-43.8,96.5c9-2.7,24.2-15.7,29.9-21.4c-2.9,17.1-2.9,65.7,0,100  c8.6-60,37.1-100,53.2-112.7c1,9.9,1,12.7-1.8,24.1c4.1-1.3,29.2-24.4,36.2-26.7c-53.3,98.1-7.5,122.7,12.4,169.5  c6.1-1.9,8-8.4,7.4-17.8c69.2,117.7,182.1,52.5,204.1-46c-147,48.9-221-94.6-113.3-158c8,11.8,15.7,23.3,23,28.8  c12.2,9.2,23.6,10.6,35.2,7.5c0,0,0,0,0.1,0c0.8-0.2,1.5-0.4,2.3-0.7c0.1,0,0.1,0,0.2-0.1c0.7-0.2,1.4-0.5,2.2-0.7  c0.1,0,0.2-0.1,0.2-0.1c0.7-0.3,1.4-0.5,2.1-0.8c0.1,0,0.2-0.1,0.3-0.1c0.7-0.3,1.3-0.6,2-0.9c0.1-0.1,0.3-0.1,0.4-0.2  c0.6-0.3,1.3-0.6,1.9-0.9c0.2-0.1,0.3-0.2,0.5-0.2c0.6-0.3,1.2-0.6,1.9-0.9c0.2-0.1,0.4-0.2,0.6-0.3c0.6-0.3,1.2-0.6,1.8-1  c0.2-0.1,0.4-0.2,0.6-0.3c0.6-0.3,1.2-0.6,1.7-1c0.2-0.1,0.5-0.3,0.7-0.4c0.6-0.3,1.1-0.7,1.7-1c0.3-0.2,0.5-0.3,0.8-0.5  c0.5-0.3,1.1-0.7,1.6-1c0.3-0.2,0.6-0.4,0.8-0.5c0.5-0.3,1-0.6,1.5-1c0.3-0.2,0.6-0.4,0.9-0.6c0.5-0.3,1-0.6,1.4-0.9  c0.4-0.2,0.7-0.5,1.1-0.7c0.4-0.3,0.9-0.6,1.3-0.9s0.8-0.5,1.2-0.8c0.4-0.3,0.8-0.5,1.2-0.8c0.5-0.3,1-0.7,1.4-1  c0.3-0.2,0.6-0.4,0.9-0.6c0.6-0.4,1.3-0.9,1.9-1.3c0.1-0.1,0.2-0.1,0.2-0.2c2.1-1.5,4.3-3,6.4-4.5c7-4.6,6.9-4.7,10.7-7.2  c7.2,22.5,6.2,49.4-14.4,57.8c-22.7,9.3-53.6-2.5-72.7-17.9c4.6,42.3,39.7,75.1,82.5,75.1c45.8,0,83-37.8,83-84.5  c0-21.1-7.6-40.3-20.1-55.1C547.6,241.3,557.1,241.1,567.2,242.5z"></path>	<g>		<path class="st1" d="M502.7,201.5c-3.3,2.2-5.5,5.3-6,9c9.7-0.7,18.6,0.4,25.7,1.4c20,2.9,49-7.7,28.8-52.4   c-0.4-0.9-0.7-1.4-0.8-1.5c-0.3,0.3-3.6,1.7-28.6,8.5c-31.4,8.6-82.8,0-82.8,0s0-11.4-8.6-20c-9.9-9.9-37.4-6.5-57.3-3.6   c-108,22.8-178.1,32.7-223.3,36.4c9.8,3.4,36.9,11.8,62,12.8c31.5,1.3,85.8-1.6,85.8-1.6s-33.8,21.8-61.2,30.9s-61,17.7-67,17   c-7-0.8,24.2,8.9,48.8,9.2c5.5,0.1,13.2-0.6,19.5-1.4c-8.4,1.5-20.2,4.2-30.5,9.4c-18.3,9.2-29.4,20.9-38.1,40.7   s-8.8,25.6-8.8,25.6s13-15.7,27.9-19.3c0.8-0.2,1.6-0.4,2.4-0.6c-10.5,23.5-12.5,48.4-12.5,48.4c16.6-34.7,60.2-56.7,85.8-67   l-16,19.7c-0.2,0.4-0.4,0.8-0.6,1.2l101.4-58l-3-0.7l0,0l-14.8-3.5c0,0,0.3-0.1,0.7-0.2h0.1c1-0.3,2.8-0.7,5.2-1.3c0,0,0,0,0.1,0   c5.6-1.4,14.4-3.6,23.5-5.7l0,0c1-0.2,2-0.5,3-0.7c10-2.3,19.9-4.3,25.7-5c4.9-0.5,1,3-7.9,12.2c14.7,6.4,41.5,25,60.9-0.9   c5.5-7.4,11.5-13,17.6-17.4c-1.3-5.7-1.3-11,0.7-16c4.2-10.1,13.4-18.6,29.4-21.3c0.6-0.1,11.4-1.1,12-0.9c3.9,1.2,6.4,3,7.5,6   c-0.1,0.1-0.1,0.1-0.2,0.2c-0.3,0-0.6,0-0.9,0c-0.1,0-0.2,0-0.4,0c-0.2,0-0.4,0-0.6,0c-0.1,0-0.2,0-0.4,0c-0.3,0-0.5,0-0.8,0   c-0.1,0-0.2,0-0.3,0c-0.3,0-0.6,0-0.8,0c-0.1,0-0.3,0-0.4,0c-0.2,0-0.4,0-0.6,0c-0.1,0-0.3,0-0.4,0c-0.3,0-0.5,0-0.8,0.1   c-0.2,0-0.3,0-0.5,0s-0.5,0-0.7,0.1c-0.1,0-0.3,0-0.4,0c-0.2,0-0.4,0-0.6,0.1c-0.2,0-0.3,0-0.5,0.1c-0.2,0-0.4,0.1-0.7,0.1   c-0.2,0-0.4,0.1-0.7,0.1c-0.2,0-0.4,0.1-0.6,0.1s-0.3,0.1-0.5,0.1s-0.3,0.1-0.5,0.1s-0.4,0.1-0.5,0.1c-0.2,0-0.3,0.1-0.5,0.1   c-0.3,0.1-0.6,0.1-0.9,0.2c-0.1,0-0.3,0.1-0.4,0.1c-0.2,0-0.4,0.1-0.6,0.1c-0.1,0-0.3,0.1-0.4,0.1c-0.2,0-0.4,0.1-0.6,0.1   c-0.1,0-0.2,0-0.2,0.1c-0.4,0.1-0.8,0.2-1.3,0.3c-0.1,0-0.2,0.1-0.3,0.1c-0.2,0.1-0.4,0.1-0.7,0.2c-0.1,0-0.2,0.1-0.3,0.1   c-0.7,0.2-1.5,0.4-2.2,0.7c-0.1,0-0.1,0-0.2,0.1c-0.2,0.1-0.5,0.2-0.7,0.2c-0.1,0-0.1,0-0.2,0.1c-0.8,0.3-1.5,0.6-2.2,0.9h-0.1   c-0.2,0.1-0.5,0.2-0.7,0.3H484c-0.8,0.3-1.5,0.7-2.2,1.1l0,0c-12.6,6.8-19.4,20.6-3.9,45.4c75.5,120.8-35,132.9-59.2,94.7   c27.8,47.6,112,32.9,111.9-22.5c0.7-27.7-45.5-81-40.9-103.2l0,0c0.5-2.3,1.5-4.2,3.1-5.7l0,0c0.5-0.4,1-0.8,1.5-1.2l0,0   c0.5-0.4,1.1-0.7,1.8-1h0.1c0.6-0.3,1.3-0.6,2.1-0.8h0.1c0.7-0.2,1.5-0.4,2.4-0.6c0.1,0,0.1,0,0.2,0   C501.8,201.6,502.3,201.5,502.7,201.5z"></path>		<path class="st1" d="M265.3,393.5c-1-41.1,10.7-62.6,23.8-78.1c-3.6,1.1-11.1,7.3-20.4,15.1c-7.8,6.6-24.8,29.3-24.2,47.7   c0.1,4.2,12.8-15,12.4-10.8c-0.3,2.9-16.8,28.3-10,49.6c0.9,2.8,9.8-14,9.8-14l6.6,14.4l10.5,22.5   C268.8,427.1,265.7,411.8,265.3,393.5z"></path>		<path class="st1" d="M454.6,441.8c-90.9,31-189-59.7-137-145.7c-22.9,19.5-33.7,56-33.7,91.5c0,59.2,41.2,107.1,92.1,107.1   c33,0,62-20.2,78.3-50.6C454.4,443.3,454.5,442.5,454.6,441.8z"></path>		<path class="st1" d="M537.8,254.1l-23.2-2.7c1.7,2.8,3.3,5.5,4.9,8.1c13.3,21.7,20.1,29.9,23.1,51.7c3.2-7.3,5-15.5,5-24.1   C547.7,274.8,544,263.4,537.8,254.1z"></path>		<path class="st1" d="M462.6,231c-5,3.8-9.8,8.8-14.5,15.1c-22.9,31.2-53.2,14.3-67.1,8c1.1,11.9,7.7,22.3,17.1,27.7   c20,11.4,42.3,7,67.6-15.8c3.4-3,7.3-5.9,11.6-8.7C471.6,248.4,466,239.5,462.6,231z"></path>		<path class="st1" d="M560.1,193l-0.1,0.7c-1.4,23.4-22.7,28.9-37.6,26.7c-7.1-1-15.4-2.2-24.2-1.9c2.2,6.5,6.6,15,11.5,23.5   c21.1-7.4,41.4-10.6,47.9-7.4C568.9,240.4,564.3,191.9,560.1,193z"></path>	</g>	<path class="st2" d="M550.4,157.8C550.4,157.8,550.4,157.9,550.4,157.8C550.5,157.8,550.4,157.8,550.4,157.8z"></path>	<path class="st0" d="M362.5,170.7c24.8-3.1,47.5-0.9,70.1,8.1C411.9,199.7,377.5,196,362.5,170.7z"></path>	<path class="st0" d="M541.9,198.7c-1-4.2-1.7-5-2.3-8.1c12.3-9.2,13.5-15.5,7.1-28.3c-4.7,5.5-9.6,11.1-14.4,16.8  c-2.4,2.9-4.7,6-7.1,9.1L541.9,198.7z"></path></g></svg>