<?xml version="1.0" encoding="utf-8"?>
<!-- Generator: Adobe Illustrator 24.0.0, SVG Export Plug-In . SVG Version: 6.00 Build 0)  -->
<svg version="1.1" id="Capa_1" xmlns="http://www.w3.org/2000/svg" xmlns:xlink="http://www.w3.org/1999/xlink" x="0px" y="0px"
	 viewBox="0 0 3512 3512" style="enable-background:new 0 0 3512 3512;" xml:space="preserve">
<style type="text/css">
	.st0{fill:#227BE7;}
	.st1{fill:#FFFFFF;}
</style>
<g>
	<g>
		<path class="st0" d="M2871.1,626.4c618.6,618.6,618.6,1621.6,0,2240.2s-1621.6,618.6-2240.2,0"/>
		<path d="M2870.1,625.4C2251.5,6.8,1248.5,6.8,629.9,625.4s-618.6,1621.6,0,2240.2"/>
	</g>
	<g>
		<path class="st1" d="M800.9,898.2H819V1042h90.4v16.7H800.9V898.2z"/>
		<path class="st1" d="M1058.9,914.7H961v54.8h87.6V986H961v56.2h99.1v16.5H942.9V898.2H1059L1058.9,914.7L1058.9,914.7z"/>
		<path class="st1" d="M1207.9,1054.3c-10.9,4.8-23.2,7.2-36.8,7.2c-12.7,0-24-2.1-34.1-6.4c-10-4.3-18.6-10.2-25.7-17.7
			s-12.5-16.3-16.3-26.4c-3.7-10.1-5.6-20.9-5.6-32.3c0-11,1.9-21.6,5.9-31.7c3.9-10.1,9.4-19,16.4-26.6s15.5-13.7,25.3-18.2
			c9.9-4.5,20.8-6.8,32.9-6.8c6.7,0,12.9,0.5,18.5,1.4s10.8,2.3,15.6,4.1c4.8,1.8,9.3,4.1,13.5,6.8s8.3,5.7,12.3,9.1l-11.7,13.8
			c-3.1-2.8-6.3-5.2-9.6-7.5c-3.4-2.2-7-4.1-10.9-5.7c-3.9-1.6-8.2-2.9-12.8-3.8c-4.7-0.9-9.8-1.4-15.5-1.4
			c-8.9,0-17.1,1.8-24.5,5.3c-7.5,3.5-13.9,8.3-19.3,14.2c-5.4,6-9.6,13-12.6,21c-3.1,8-4.6,16.6-4.6,25.6c0,9.7,1.5,18.6,4.5,26.8
			s7.2,15.3,12.7,21.3c5.5,6,12.2,10.6,20,14s16.6,5.1,26.4,5.1c9.2,0,17.8-1.6,25.9-4.7s14.9-7,20.4-11.4v-40.1h-48.9v-16.1h66.3
			v63.8C1228.1,1043.7,1218.8,1049.5,1207.9,1054.3z"/>
		<path class="st1" d="M1425.9,1058.7h-19.5l-18.8-42.4h-87.4l-19,42.4h-18.6l73.2-161.7h17L1425.9,1058.7z M1344.1,918.4
			l-36.7,81.9h73.2L1344.1,918.4z"/>
		<path class="st1" d="M1572.9,1044.9c-4.5,3.4-9.4,6.4-14.6,8.8s-10.8,4.4-16.7,5.7c-6,1.4-12.6,2.1-20,2.1
			c-11.6,0-22.3-2.1-32.1-6.4c-9.8-4.3-18.3-10.1-25.5-17.5s-12.8-16.2-16.9-26.3s-6.1-21-6.1-32.6c0-11.5,2-22.3,6.1-32.3
			c4-10.1,9.7-18.9,16.9-26.5c7.2-7.6,15.8-13.5,25.7-17.9c9.9-4.4,20.8-6.5,32.6-6.5c7.3,0,14,0.6,19.8,1.8
			c5.9,1.2,11.3,2.9,16.4,5.2c5,2.2,9.7,4.9,14,8s8.4,6.6,12.4,10.4l-12.4,13.3c-6.9-6.4-14.3-11.7-22.1-15.8
			c-7.9-4.1-17.3-6.2-28.3-6.2c-8.9,0-17.1,1.7-24.7,5c-7.6,3.4-14.1,8-19.7,14s-9.9,13-13.1,21c-3.1,8-4.7,16.7-4.7,26
			s1.6,18,4.7,26.1s7.5,15.1,13.1,21.1s12.2,10.7,19.7,14.1c7.6,3.4,15.8,5.2,24.7,5.2c11,0,20.5-2,28.4-6.1
			c8-4.1,15.8-9.8,23.4-17.1l11.9,11.7C1581.7,1037.6,1577.4,1041.4,1572.9,1044.9z"/>
		<path class="st1" d="M1683.6,1058.7h-18.2v-63.5l-66.8-97h22l54,80.3l54.5-80.3h21.1l-66.8,96.8v63.7H1683.6z"/>
	</g>
	<g>
		<path class="st1" d="M1440.6,2710.2l-14.7-36H1358l-14.7,36h-36l68.8-161.7h32.6l68.8,161.7H1440.6z M1392,2590.9l-21.3,52.1h42.7
			L1392,2590.9z"/>
		<path class="st1" d="M1630.5,2696.2c-4.4,3.5-9.3,6.5-14.6,9.1c-5.3,2.5-11.1,4.4-17.3,5.7c-6.3,1.3-13.3,1.9-21.1,1.9
			c-11.8,0-22.7-2.1-32.8-6.4c-10.1-4.3-18.8-10.1-26.2-17.5c-7.3-7.4-13.1-16.2-17.2-26.3s-6.2-20.9-6.2-32.3v-0.5
			c0-11.5,2.1-22.2,6.2-32.2s9.9-18.8,17.2-26.4c7.3-7.6,16.1-13.5,26.4-17.9c10.2-4.4,21.6-6.5,33.9-6.5c7.5,0,14.3,0.6,20.5,1.8
			s11.8,2.9,16.9,5c5,2.1,9.7,4.7,14,7.8s8.3,6.4,11.9,10.1l-22.5,25.9c-6.3-5.7-12.7-10.1-19.2-13.3s-13.8-4.8-21.9-4.8
			c-6.7,0-13,1.3-18.7,3.9c-5.7,2.6-10.7,6.2-14.8,10.8c-4.1,4.6-7.3,9.9-9.6,15.9c-2.3,6-3.4,12.5-3.4,19.4v0.5
			c0,6.9,1.1,13.4,3.4,19.5s5.5,11.5,9.5,16.1s8.9,8.2,14.7,10.9c5.7,2.7,12,4,18.9,4c9.2,0,16.9-1.7,23.3-5
			c6.3-3.4,12.7-7.9,18.9-13.8l22.5,22.7C1639.3,2688.7,1635,2692.7,1630.5,2696.2z"/>
		<path class="st1" d="M1791.1,2710.2l-14.7-36h-67.9l-14.7,36h-36l68.8-161.7h32.6l68.8,161.7H1791.1z M1742.5,2590.9l-21.3,52.1
			h42.7L1742.5,2590.9z"/>
		<path class="st1" d="M1994.6,2661.6c-4.1,9.8-10,18.3-17.5,25.5c-7.6,7.2-16.6,12.8-27.1,17c-10.5,4.1-22,6.2-34.5,6.2h-62.6
			v-160.7h62.6c12.5,0,24,2,34.5,6.1s19.5,9.7,27.1,16.9c7.6,7.2,13.4,15.6,17.5,25.3s6.2,20.2,6.2,31.5v0.5
			C2000.8,2641.2,1998.7,2651.8,1994.6,2661.6z M1963.8,2629.9c0-7-1.2-13.5-3.6-19.5s-5.7-11.1-9.9-15.4c-4.2-4.3-9.3-7.6-15.3-10
			s-12.5-3.6-19.7-3.6H1888v96.8h27.3c7.2,0,13.8-1.1,19.7-3.4c6-2.3,11-5.6,15.3-9.9c4.2-4.3,7.5-9.3,9.9-15.1s3.6-12.3,3.6-19.5
			V2629.9z"/>
		<path class="st1" d="M2032.2,2710.2v-160.6h120.9v31.4h-86v32.6h75.7v31.4h-75.7v33.7h87.2v31.4h-122.1V2710.2z"/>
		<path class="st1" d="M2311.6,2710.2v-104.8l-45.2,68.6h-0.9l-44.7-67.9v104.1h-34.9v-160.6h38.1l42.2,67.9l42.2-67.9h38.1v160.6
			H2311.6z"/>
		<path class="st1" d="M2465.5,2646.2v64h-35.3v-63.3l-61.7-97.3h41.3l38.3,64.5l39-64.5h40.1L2465.5,2646.2z"/>
	</g>
	<path class="st1" d="M683.9,2138.3c42.2,30.2,95.6,45.3,160.1,45.3c35.6,0,69.1-6.2,100.5-18.6c31.4-12.4,58.7-31,81.9-55.8
		c23.1-24.8,41.4-55.6,54.6-92.4c13.2-36.8,19.9-79.6,19.9-128.5v-585.8h-64.5v590.7c0,38.1-4.8,71.6-14.3,100.5
		c-9.5,29-22.8,53.2-39.7,72.6c-17,19.4-37,34.1-60.2,44c-23.2,9.9-48,14.9-74.5,14.9c-25.6,0-48.6-2.9-68.9-8.7
		c-20.3-5.8-38.9-14.5-55.9-26.1c-17-11.6-32.7-26.1-47.2-43.4c-14.5-17.4-28.3-37.2-41.6-59.6l-53.4,33.5
		C607.3,2069.1,641.7,2108.1,683.9,2138.3z"/>
	<path class="st1" d="M2708.6,2137.7c56.7-22.3,105.5-52.9,146.4-91.8c40.9-38.9,72.6-84.8,94.9-137.8
		c22.3-52.9,33.5-110,33.5-171.3v-2.5c0-61.2-11.2-118.1-33.5-170.6s-54-98.2-94.9-137.1c-40.9-38.9-89.8-69.3-146.4-91.2
		c-56.7-21.9-118.9-32.9-186.8-32.9h-289.1v868.7h289.1C2589.6,2171.2,2651.9,2160.1,2708.6,2137.7z M2297.2,1360.9h224.6
		c60.4,0,115,10,163.8,29.9c48.8,19.9,90.2,46.9,124.1,80.9c33.9,34.1,60.2,73.9,78.8,119.5c18.6,45.6,27.9,94.2,27.9,145.7v2.5
		c0,52.3-9.3,101.1-27.9,146.3c-18.6,45.2-44.9,84.7-78.8,118.3c-33.9,33.6-75.3,60.2-124.1,79.7c-48.8,19.5-103.4,29.3-163.8,29.3
		h-224.6V1360.9z"/>
	<path class="st1" d="M2444.4,436.2c-104.7-55.6-215.9-98.4-330.6-127.3c-118.1-29.8-240.3-44.9-363.3-44.9
		c-200,0-394.1,39.2-576.9,116.5c-87.8,37.1-172.5,83.1-251.7,136.6c-78.5,53-152.2,113.9-219.3,180.9S574.6,838.9,521.6,917.4
		c-53.5,79.2-99.5,163.9-136.6,251.7C307.7,1351.9,268.5,1546,268.5,1746s39.2,394.1,116.5,576.9c37.1,87.8,83.1,172.5,136.6,251.7
		c35.2,52.2,74,102.2,115.7,149.6l43.9-43.9c-39-44.6-75.2-91.5-108.2-140.4c-51.3-75.9-95.3-157.1-130.9-241.2
		c-74-175-111.6-361-111.6-552.7s37.5-377.7,111.6-552.7c35.6-84.1,79.6-165.3,130.9-241.2c50.8-75.2,109.1-145.9,173.4-210.2
		c64.3-64.3,135-122.6,210.2-173.4c75.9-51.3,157.1-95.3,241.2-130.9c175-74,361-111.6,552.7-111.6c117.8,0,235,14.5,348.1,43
		c97.2,24.5,191.7,59.4,281.7,104l-615.5,615.5l43.4,43.4l674.6-674.6C2470.1,450.1,2457.3,443.1,2444.4,436.2z"/>
	<path class="st1" d="M3014.2,971.5c-89.9-146.4-204.2-275.6-337.2-382.2l-664.1,664.1l-0.2-0.2l-602.8,602.6v-553.2h-64.5v617.8
		l-729.2,729.2c14.1,17.6,28.8,35,43.8,52.1l685.4-685.4v155h64.5v-219.6l217.6-217.6l355.7,437.2h84.4l-394.2-483.1L2685,676.9
		c107.6,94.1,201,204.3,276.4,327.1c67.1,109.3,119,227,154.3,350c36.4,126.9,54.8,258.8,54.8,392.1c0,191.7-37.5,377.7-111.6,552.7
		c-35.6,84.1-79.6,165.3-130.9,241.2c-50.8,75.2-109.1,145.9-173.4,210.2c-64.3,64.3-135,122.6-210.2,173.4
		c-75.9,51.3-157.1,95.3-241.2,130.9c-175,74-361,111.6-552.7,111.6c-191.7,0-377.7-37.5-552.7-111.6
		c-84.1-35.6-165.3-79.6-241.2-130.9c-20.9-14.1-41.4-28.8-61.5-44l621.5-621.5l-43.3-43.3l-670.6,670.6
		c38.3,31.9,78.1,61.8,119.2,89.6c79.2,53.5,163.9,99.5,251.7,136.6c182.7,77.3,376.8,116.5,576.9,116.5
		c200,0,394.1-39.2,576.9-116.5c87.8-37.1,172.5-83.1,251.7-136.6c78.5-53,152.2-113.9,219.3-180.9s127.9-140.8,180.9-219.3
		c53.5-79.2,99.5-163.9,136.6-251.7c77.3-182.7,116.5-376.8,116.5-576.9c0-139.1-19.2-276.7-57.2-409.2
		C3138.4,1208.5,3084.2,1085.6,3014.2,971.5z"/>
</g>
</svg>
